<mxfile host="app.diagrams.net" modified="2024-05-04T09:05:49.396Z" agent="Mozilla/5.0 (Windows NT 10.0; Win64; x64) AppleWebKit/537.36 (KHTML, like Gecko) Chrome/124.0.0.0 Safari/537.36" etag="JkiJZuFmx876z6VStuMy" version="24.2.1" type="github">
  <diagram id="R2lEEEUBdFMjLlhIrx00" name="Page-1">
    <mxGraphModel dx="2085" dy="1836" grid="1" gridSize="10" guides="1" tooltips="1" connect="1" arrows="1" fold="1" page="1" pageScale="1" pageWidth="850" pageHeight="1100" math="0" shadow="0" extFonts="Permanent Marker^https://fonts.googleapis.com/css?family=Permanent+Marker">
      <root>
        <mxCell id="0" />
        <mxCell id="1" parent="0" />
        <mxCell id="8Gjf8t7oj8j_AWwgMj1q-14" style="rounded=0;orthogonalLoop=1;jettySize=auto;html=1;exitX=1;exitY=0.5;exitDx=0;exitDy=0;entryX=0;entryY=0.5;entryDx=0;entryDy=0;endArrow=none;endFill=0;" edge="1" parent="1" source="8Gjf8t7oj8j_AWwgMj1q-1" target="8Gjf8t7oj8j_AWwgMj1q-9">
          <mxGeometry relative="1" as="geometry" />
        </mxCell>
        <mxCell id="8Gjf8t7oj8j_AWwgMj1q-16" style="edgeStyle=none;rounded=0;orthogonalLoop=1;jettySize=auto;html=1;exitX=1;exitY=0.5;exitDx=0;exitDy=0;entryX=0;entryY=0.5;entryDx=0;entryDy=0;strokeColor=default;align=center;verticalAlign=middle;fontFamily=Helvetica;fontSize=11;fontColor=default;labelBackgroundColor=default;endArrow=none;endFill=0;" edge="1" parent="1" source="8Gjf8t7oj8j_AWwgMj1q-1" target="8Gjf8t7oj8j_AWwgMj1q-12">
          <mxGeometry relative="1" as="geometry" />
        </mxCell>
        <mxCell id="8Gjf8t7oj8j_AWwgMj1q-18" style="edgeStyle=none;rounded=0;orthogonalLoop=1;jettySize=auto;html=1;exitX=0.5;exitY=1;exitDx=0;exitDy=0;strokeColor=default;align=center;verticalAlign=middle;fontFamily=Helvetica;fontSize=11;fontColor=default;labelBackgroundColor=default;endArrow=none;endFill=0;entryX=0;entryY=0.5;entryDx=0;entryDy=0;" edge="1" parent="1" source="8Gjf8t7oj8j_AWwgMj1q-1" target="8Gjf8t7oj8j_AWwgMj1q-13">
          <mxGeometry relative="1" as="geometry" />
        </mxCell>
        <mxCell id="8Gjf8t7oj8j_AWwgMj1q-52" value="" style="edgeStyle=none;rounded=0;orthogonalLoop=1;jettySize=auto;html=1;strokeColor=default;align=center;verticalAlign=middle;fontFamily=Helvetica;fontSize=11;fontColor=default;labelBackgroundColor=default;endArrow=none;endFill=0;" edge="1" parent="1" source="8Gjf8t7oj8j_AWwgMj1q-1" target="8Gjf8t7oj8j_AWwgMj1q-47">
          <mxGeometry relative="1" as="geometry" />
        </mxCell>
        <mxCell id="8Gjf8t7oj8j_AWwgMj1q-1" value="Student" style="rounded=0;whiteSpace=wrap;html=1;" vertex="1" parent="1">
          <mxGeometry x="30" y="30" width="100" height="50" as="geometry" />
        </mxCell>
        <mxCell id="8Gjf8t7oj8j_AWwgMj1q-21" value="" style="edgeStyle=none;rounded=0;orthogonalLoop=1;jettySize=auto;html=1;strokeColor=default;align=center;verticalAlign=middle;fontFamily=Helvetica;fontSize=11;fontColor=default;labelBackgroundColor=default;endArrow=none;endFill=0;" edge="1" parent="1" source="8Gjf8t7oj8j_AWwgMj1q-2" target="8Gjf8t7oj8j_AWwgMj1q-20">
          <mxGeometry relative="1" as="geometry" />
        </mxCell>
        <mxCell id="8Gjf8t7oj8j_AWwgMj1q-24" style="edgeStyle=none;rounded=0;orthogonalLoop=1;jettySize=auto;html=1;entryX=0;entryY=0.5;entryDx=0;entryDy=0;strokeColor=default;align=center;verticalAlign=middle;fontFamily=Helvetica;fontSize=11;fontColor=default;labelBackgroundColor=default;endArrow=none;endFill=0;" edge="1" parent="1" source="8Gjf8t7oj8j_AWwgMj1q-2" target="8Gjf8t7oj8j_AWwgMj1q-23">
          <mxGeometry relative="1" as="geometry" />
        </mxCell>
        <mxCell id="8Gjf8t7oj8j_AWwgMj1q-38" style="edgeStyle=none;rounded=0;orthogonalLoop=1;jettySize=auto;html=1;exitX=0.5;exitY=1;exitDx=0;exitDy=0;entryX=0.5;entryY=0;entryDx=0;entryDy=0;strokeColor=default;align=center;verticalAlign=middle;fontFamily=Helvetica;fontSize=11;fontColor=default;labelBackgroundColor=default;endArrow=none;endFill=0;" edge="1" parent="1" source="8Gjf8t7oj8j_AWwgMj1q-2" target="8Gjf8t7oj8j_AWwgMj1q-28">
          <mxGeometry relative="1" as="geometry" />
        </mxCell>
        <mxCell id="8Gjf8t7oj8j_AWwgMj1q-67" style="edgeStyle=none;rounded=0;orthogonalLoop=1;jettySize=auto;html=1;exitX=1;exitY=1;exitDx=0;exitDy=0;strokeColor=default;align=center;verticalAlign=middle;fontFamily=Helvetica;fontSize=11;fontColor=default;labelBackgroundColor=default;endArrow=none;endFill=0;" edge="1" parent="1" source="8Gjf8t7oj8j_AWwgMj1q-2" target="8Gjf8t7oj8j_AWwgMj1q-63">
          <mxGeometry relative="1" as="geometry" />
        </mxCell>
        <mxCell id="8Gjf8t7oj8j_AWwgMj1q-68" style="edgeStyle=none;rounded=0;orthogonalLoop=1;jettySize=auto;html=1;exitX=0;exitY=1;exitDx=0;exitDy=0;entryX=0.5;entryY=0;entryDx=0;entryDy=0;strokeColor=default;align=center;verticalAlign=middle;fontFamily=Helvetica;fontSize=11;fontColor=default;labelBackgroundColor=default;endArrow=none;endFill=0;" edge="1" parent="1" source="8Gjf8t7oj8j_AWwgMj1q-2" target="8Gjf8t7oj8j_AWwgMj1q-64">
          <mxGeometry relative="1" as="geometry" />
        </mxCell>
        <mxCell id="8Gjf8t7oj8j_AWwgMj1q-69" style="edgeStyle=none;rounded=0;orthogonalLoop=1;jettySize=auto;html=1;exitX=0;exitY=0.5;exitDx=0;exitDy=0;entryX=1;entryY=0.5;entryDx=0;entryDy=0;strokeColor=default;align=center;verticalAlign=middle;fontFamily=Helvetica;fontSize=11;fontColor=default;labelBackgroundColor=default;endArrow=none;endFill=0;" edge="1" parent="1" source="8Gjf8t7oj8j_AWwgMj1q-2" target="8Gjf8t7oj8j_AWwgMj1q-62">
          <mxGeometry relative="1" as="geometry" />
        </mxCell>
        <mxCell id="8Gjf8t7oj8j_AWwgMj1q-2" value="Professor&lt;span style=&quot;color: rgba(0, 0, 0, 0); font-family: monospace; font-size: 0px; text-align: start; text-wrap: nowrap;&quot;&gt;%3CmxGraphModel%3E%3Croot%3E%3CmxCell%20id%3D%220%22%2F%3E%3CmxCell%20id%3D%221%22%20parent%3D%220%22%2F%3E%3CmxCell%20id%3D%222%22%20value%3D%22Student%22%20style%3D%22rounded%3D0%3BwhiteSpace%3Dwrap%3Bhtml%3D1%3B%22%20vertex%3D%221%22%20parent%3D%221%22%3E%3CmxGeometry%20x%3D%22150%22%20y%3D%2290%22%20width%3D%22100%22%20height%3D%2250%22%20as%3D%22geometry%22%2F%3E%3C%2FmxCell%3E%3C%2Froot%3E%3C%2FmxGraphModel%3E&lt;/span&gt;" style="rounded=0;whiteSpace=wrap;html=1;" vertex="1" parent="1">
          <mxGeometry x="40" y="550" width="100" height="50" as="geometry" />
        </mxCell>
        <mxCell id="8Gjf8t7oj8j_AWwgMj1q-3" value="Examination Section" style="rounded=0;whiteSpace=wrap;html=1;" vertex="1" parent="1">
          <mxGeometry x="40" y="850" width="100" height="50" as="geometry" />
        </mxCell>
        <mxCell id="8Gjf8t7oj8j_AWwgMj1q-33" value="" style="edgeStyle=none;rounded=0;orthogonalLoop=1;jettySize=auto;html=1;strokeColor=default;align=center;verticalAlign=middle;fontFamily=Helvetica;fontSize=11;fontColor=default;labelBackgroundColor=default;endArrow=none;endFill=0;" edge="1" parent="1" source="8Gjf8t7oj8j_AWwgMj1q-5" target="8Gjf8t7oj8j_AWwgMj1q-32">
          <mxGeometry relative="1" as="geometry" />
        </mxCell>
        <mxCell id="8Gjf8t7oj8j_AWwgMj1q-86" style="edgeStyle=none;rounded=0;orthogonalLoop=1;jettySize=auto;html=1;exitX=1;exitY=0;exitDx=0;exitDy=0;entryX=0;entryY=1;entryDx=0;entryDy=0;strokeColor=default;align=center;verticalAlign=middle;fontFamily=Helvetica;fontSize=11;fontColor=default;labelBackgroundColor=default;endArrow=none;endFill=0;" edge="1" parent="1" source="8Gjf8t7oj8j_AWwgMj1q-5" target="8Gjf8t7oj8j_AWwgMj1q-85">
          <mxGeometry relative="1" as="geometry" />
        </mxCell>
        <mxCell id="8Gjf8t7oj8j_AWwgMj1q-87" style="edgeStyle=none;rounded=0;orthogonalLoop=1;jettySize=auto;html=1;exitX=1;exitY=0.5;exitDx=0;exitDy=0;strokeColor=default;align=center;verticalAlign=middle;fontFamily=Helvetica;fontSize=11;fontColor=default;labelBackgroundColor=default;endArrow=none;endFill=0;" edge="1" parent="1" source="8Gjf8t7oj8j_AWwgMj1q-5" target="8Gjf8t7oj8j_AWwgMj1q-84">
          <mxGeometry relative="1" as="geometry" />
        </mxCell>
        <mxCell id="8Gjf8t7oj8j_AWwgMj1q-88" style="edgeStyle=none;rounded=0;orthogonalLoop=1;jettySize=auto;html=1;exitX=0;exitY=1;exitDx=0;exitDy=0;strokeColor=default;align=center;verticalAlign=middle;fontFamily=Helvetica;fontSize=11;fontColor=default;labelBackgroundColor=default;endArrow=none;endFill=0;" edge="1" parent="1" source="8Gjf8t7oj8j_AWwgMj1q-5" target="8Gjf8t7oj8j_AWwgMj1q-83">
          <mxGeometry relative="1" as="geometry" />
        </mxCell>
        <mxCell id="8Gjf8t7oj8j_AWwgMj1q-5" value="Helping Staff" style="rounded=0;whiteSpace=wrap;html=1;" vertex="1" parent="1">
          <mxGeometry x="630" y="290" width="100" height="50" as="geometry" />
        </mxCell>
        <mxCell id="8Gjf8t7oj8j_AWwgMj1q-72" style="edgeStyle=none;rounded=0;orthogonalLoop=1;jettySize=auto;html=1;exitX=1;exitY=0;exitDx=0;exitDy=0;entryX=0;entryY=0.5;entryDx=0;entryDy=0;strokeColor=default;align=center;verticalAlign=middle;fontFamily=Helvetica;fontSize=11;fontColor=default;labelBackgroundColor=default;endArrow=none;endFill=0;" edge="1" parent="1" source="8Gjf8t7oj8j_AWwgMj1q-6" target="8Gjf8t7oj8j_AWwgMj1q-71">
          <mxGeometry relative="1" as="geometry" />
        </mxCell>
        <mxCell id="8Gjf8t7oj8j_AWwgMj1q-90" style="edgeStyle=none;rounded=0;orthogonalLoop=1;jettySize=auto;html=1;exitX=0.5;exitY=1;exitDx=0;exitDy=0;entryX=0.5;entryY=0;entryDx=0;entryDy=0;strokeColor=default;align=center;verticalAlign=middle;fontFamily=Helvetica;fontSize=11;fontColor=default;labelBackgroundColor=default;endArrow=none;endFill=0;" edge="1" parent="1" source="8Gjf8t7oj8j_AWwgMj1q-6" target="8Gjf8t7oj8j_AWwgMj1q-89">
          <mxGeometry relative="1" as="geometry" />
        </mxCell>
        <mxCell id="8Gjf8t7oj8j_AWwgMj1q-6" value="Course" style="rounded=0;whiteSpace=wrap;html=1;" vertex="1" parent="1">
          <mxGeometry x="360" y="340" width="90" height="30" as="geometry" />
        </mxCell>
        <mxCell id="8Gjf8t7oj8j_AWwgMj1q-7" value="Result Card" style="rounded=0;whiteSpace=wrap;html=1;" vertex="1" parent="1">
          <mxGeometry x="410" y="205" width="80" height="50" as="geometry" />
        </mxCell>
        <mxCell id="8Gjf8t7oj8j_AWwgMj1q-8" value="Hostel" style="rounded=0;whiteSpace=wrap;html=1;" vertex="1" parent="1">
          <mxGeometry x="410" y="75" width="90" height="50" as="geometry" />
        </mxCell>
        <mxCell id="8Gjf8t7oj8j_AWwgMj1q-15" style="edgeStyle=none;rounded=0;orthogonalLoop=1;jettySize=auto;html=1;exitX=1;exitY=0.5;exitDx=0;exitDy=0;entryX=0;entryY=0.5;entryDx=0;entryDy=0;strokeColor=default;align=center;verticalAlign=middle;fontFamily=Helvetica;fontSize=11;fontColor=default;labelBackgroundColor=default;endArrow=none;endFill=0;" edge="1" parent="1" source="8Gjf8t7oj8j_AWwgMj1q-126" target="8Gjf8t7oj8j_AWwgMj1q-8">
          <mxGeometry relative="1" as="geometry" />
        </mxCell>
        <mxCell id="8Gjf8t7oj8j_AWwgMj1q-9" value="Apply for" style="rhombus;whiteSpace=wrap;html=1;fillColor=#f8cecc;strokeColor=#b85450;" vertex="1" parent="1">
          <mxGeometry x="200" y="70" width="80" height="70" as="geometry" />
        </mxCell>
        <mxCell id="8Gjf8t7oj8j_AWwgMj1q-29" style="edgeStyle=none;rounded=0;orthogonalLoop=1;jettySize=auto;html=1;exitX=0;exitY=0.5;exitDx=0;exitDy=0;strokeColor=default;align=center;verticalAlign=middle;fontFamily=Helvetica;fontSize=11;fontColor=default;labelBackgroundColor=default;endArrow=none;endFill=0;" edge="1" parent="1" source="8Gjf8t7oj8j_AWwgMj1q-10" target="8Gjf8t7oj8j_AWwgMj1q-27">
          <mxGeometry relative="1" as="geometry" />
        </mxCell>
        <mxCell id="8Gjf8t7oj8j_AWwgMj1q-36" style="edgeStyle=none;rounded=0;orthogonalLoop=1;jettySize=auto;html=1;entryX=0.5;entryY=1;entryDx=0;entryDy=0;strokeColor=default;align=center;verticalAlign=middle;fontFamily=Helvetica;fontSize=11;fontColor=default;labelBackgroundColor=default;endArrow=none;endFill=0;" edge="1" parent="1" source="8Gjf8t7oj8j_AWwgMj1q-111" target="8Gjf8t7oj8j_AWwgMj1q-35">
          <mxGeometry relative="1" as="geometry" />
        </mxCell>
        <mxCell id="8Gjf8t7oj8j_AWwgMj1q-10" value="Training and Placement Coordinator" style="rounded=0;whiteSpace=wrap;html=1;" vertex="1" parent="1">
          <mxGeometry x="620" y="630" width="120" height="60" as="geometry" />
        </mxCell>
        <mxCell id="8Gjf8t7oj8j_AWwgMj1q-17" style="edgeStyle=none;rounded=0;orthogonalLoop=1;jettySize=auto;html=1;exitX=1;exitY=0.5;exitDx=0;exitDy=0;strokeColor=default;align=center;verticalAlign=middle;fontFamily=Helvetica;fontSize=11;fontColor=default;labelBackgroundColor=default;endArrow=none;endFill=0;" edge="1" parent="1" source="8Gjf8t7oj8j_AWwgMj1q-12" target="8Gjf8t7oj8j_AWwgMj1q-7">
          <mxGeometry relative="1" as="geometry" />
        </mxCell>
        <mxCell id="8Gjf8t7oj8j_AWwgMj1q-12" value="Fetch" style="rhombus;whiteSpace=wrap;html=1;fillColor=#f8cecc;strokeColor=#b85450;" vertex="1" parent="1">
          <mxGeometry x="210" y="190" width="80" height="80" as="geometry" />
        </mxCell>
        <mxCell id="8Gjf8t7oj8j_AWwgMj1q-19" value="" style="edgeStyle=none;rounded=0;orthogonalLoop=1;jettySize=auto;html=1;strokeColor=default;align=center;verticalAlign=middle;fontFamily=Helvetica;fontSize=11;fontColor=default;labelBackgroundColor=default;endArrow=none;endFill=0;" edge="1" parent="1" source="8Gjf8t7oj8j_AWwgMj1q-96" target="8Gjf8t7oj8j_AWwgMj1q-6">
          <mxGeometry relative="1" as="geometry" />
        </mxCell>
        <mxCell id="8Gjf8t7oj8j_AWwgMj1q-13" value="Enroll in" style="rhombus;whiteSpace=wrap;html=1;fillColor=#f8cecc;strokeColor=#b85450;" vertex="1" parent="1">
          <mxGeometry x="190" y="320" width="80" height="80" as="geometry" />
        </mxCell>
        <mxCell id="8Gjf8t7oj8j_AWwgMj1q-22" style="edgeStyle=none;rounded=0;orthogonalLoop=1;jettySize=auto;html=1;strokeColor=default;align=center;verticalAlign=middle;fontFamily=Helvetica;fontSize=11;fontColor=default;labelBackgroundColor=default;endArrow=none;endFill=0;entryX=0.5;entryY=1;entryDx=0;entryDy=0;" edge="1" parent="1" source="8Gjf8t7oj8j_AWwgMj1q-20" target="8Gjf8t7oj8j_AWwgMj1q-1">
          <mxGeometry relative="1" as="geometry">
            <mxPoint x="90" y="270" as="targetPoint" />
          </mxGeometry>
        </mxCell>
        <mxCell id="8Gjf8t7oj8j_AWwgMj1q-20" value="Teaches" style="rhombus;whiteSpace=wrap;html=1;fontFamily=Helvetica;fontSize=11;labelBackgroundColor=default;fillColor=#f8cecc;strokeColor=#b85450;" vertex="1" parent="1">
          <mxGeometry x="50" y="300" width="80" height="80" as="geometry" />
        </mxCell>
        <mxCell id="8Gjf8t7oj8j_AWwgMj1q-25" style="edgeStyle=none;rounded=0;orthogonalLoop=1;jettySize=auto;html=1;exitX=1;exitY=0.5;exitDx=0;exitDy=0;entryX=0;entryY=0.75;entryDx=0;entryDy=0;strokeColor=default;align=center;verticalAlign=middle;fontFamily=Helvetica;fontSize=11;fontColor=default;labelBackgroundColor=default;endArrow=none;endFill=0;" edge="1" parent="1" source="8Gjf8t7oj8j_AWwgMj1q-23" target="8Gjf8t7oj8j_AWwgMj1q-6">
          <mxGeometry relative="1" as="geometry" />
        </mxCell>
        <mxCell id="8Gjf8t7oj8j_AWwgMj1q-23" value="Updates" style="rhombus;whiteSpace=wrap;html=1;fontFamily=Helvetica;fontSize=11;labelBackgroundColor=default;fillColor=#f8cecc;strokeColor=#b85450;" vertex="1" parent="1">
          <mxGeometry x="230" y="440" width="80" height="70" as="geometry" />
        </mxCell>
        <mxCell id="8Gjf8t7oj8j_AWwgMj1q-121" value="" style="edgeStyle=none;rounded=0;orthogonalLoop=1;jettySize=auto;html=1;strokeColor=default;align=center;verticalAlign=middle;fontFamily=Helvetica;fontSize=11;fontColor=default;labelBackgroundColor=default;endArrow=none;endFill=0;" edge="1" parent="1" source="8Gjf8t7oj8j_AWwgMj1q-26" target="8Gjf8t7oj8j_AWwgMj1q-119">
          <mxGeometry relative="1" as="geometry" />
        </mxCell>
        <mxCell id="8Gjf8t7oj8j_AWwgMj1q-26" value="Companies" style="rounded=0;whiteSpace=wrap;html=1;fontFamily=Helvetica;fontSize=11;fontColor=default;labelBackgroundColor=default;" vertex="1" parent="1">
          <mxGeometry x="265" y="630" width="90" height="50" as="geometry" />
        </mxCell>
        <mxCell id="8Gjf8t7oj8j_AWwgMj1q-30" value="" style="edgeStyle=none;rounded=0;orthogonalLoop=1;jettySize=auto;html=1;strokeColor=default;align=center;verticalAlign=middle;fontFamily=Helvetica;fontSize=11;fontColor=default;labelBackgroundColor=default;endArrow=none;endFill=0;" edge="1" parent="1" source="8Gjf8t7oj8j_AWwgMj1q-27" target="8Gjf8t7oj8j_AWwgMj1q-26">
          <mxGeometry relative="1" as="geometry" />
        </mxCell>
        <mxCell id="8Gjf8t7oj8j_AWwgMj1q-27" value="Registers" style="rhombus;whiteSpace=wrap;html=1;fontFamily=Helvetica;fontSize=11;labelBackgroundColor=default;fillColor=#f8cecc;strokeColor=#b85450;" vertex="1" parent="1">
          <mxGeometry x="460" y="620" width="80" height="80" as="geometry" />
        </mxCell>
        <mxCell id="8Gjf8t7oj8j_AWwgMj1q-39" value="" style="edgeStyle=none;rounded=0;orthogonalLoop=1;jettySize=auto;html=1;strokeColor=default;align=center;verticalAlign=middle;fontFamily=Helvetica;fontSize=11;fontColor=default;labelBackgroundColor=default;endArrow=none;endFill=0;" edge="1" parent="1" source="8Gjf8t7oj8j_AWwgMj1q-28" target="8Gjf8t7oj8j_AWwgMj1q-3">
          <mxGeometry relative="1" as="geometry" />
        </mxCell>
        <mxCell id="8Gjf8t7oj8j_AWwgMj1q-28" value="Creates Paper" style="rhombus;whiteSpace=wrap;html=1;fontFamily=Helvetica;fontSize=11;fontColor=default;labelBackgroundColor=default;" vertex="1" parent="1">
          <mxGeometry x="50" y="680" width="80" height="80" as="geometry" />
        </mxCell>
        <mxCell id="8Gjf8t7oj8j_AWwgMj1q-41" value="" style="edgeStyle=none;rounded=0;orthogonalLoop=1;jettySize=auto;html=1;strokeColor=default;align=center;verticalAlign=middle;fontFamily=Helvetica;fontSize=11;fontColor=default;labelBackgroundColor=default;endArrow=none;endFill=0;" edge="1" parent="1" source="8Gjf8t7oj8j_AWwgMj1q-102" target="8Gjf8t7oj8j_AWwgMj1q-40">
          <mxGeometry relative="1" as="geometry" />
        </mxCell>
        <mxCell id="8Gjf8t7oj8j_AWwgMj1q-31" value="Notice Board" style="rounded=0;whiteSpace=wrap;html=1;fontFamily=Helvetica;fontSize=11;fontColor=default;labelBackgroundColor=default;" vertex="1" parent="1">
          <mxGeometry x="670" y="20" width="90" height="40" as="geometry" />
        </mxCell>
        <mxCell id="8Gjf8t7oj8j_AWwgMj1q-34" value="" style="edgeStyle=none;rounded=0;orthogonalLoop=1;jettySize=auto;html=1;strokeColor=default;align=center;verticalAlign=middle;fontFamily=Helvetica;fontSize=11;fontColor=default;labelBackgroundColor=default;endArrow=none;endFill=0;" edge="1" parent="1" source="8Gjf8t7oj8j_AWwgMj1q-32" target="8Gjf8t7oj8j_AWwgMj1q-31">
          <mxGeometry relative="1" as="geometry" />
        </mxCell>
        <mxCell id="8Gjf8t7oj8j_AWwgMj1q-32" value="Updates" style="rhombus;whiteSpace=wrap;html=1;fontFamily=Helvetica;fontSize=11;labelBackgroundColor=default;fillColor=#f8cecc;strokeColor=#b85450;" vertex="1" parent="1">
          <mxGeometry x="640" y="140" width="80" height="80" as="geometry" />
        </mxCell>
        <mxCell id="8Gjf8t7oj8j_AWwgMj1q-37" style="edgeStyle=none;rounded=0;orthogonalLoop=1;jettySize=auto;html=1;entryX=0.5;entryY=1;entryDx=0;entryDy=0;strokeColor=default;align=center;verticalAlign=middle;fontFamily=Helvetica;fontSize=11;fontColor=default;labelBackgroundColor=default;endArrow=none;endFill=0;" edge="1" parent="1" source="8Gjf8t7oj8j_AWwgMj1q-35" target="8Gjf8t7oj8j_AWwgMj1q-5">
          <mxGeometry relative="1" as="geometry" />
        </mxCell>
        <mxCell id="8Gjf8t7oj8j_AWwgMj1q-35" value="Provides Information" style="rhombus;whiteSpace=wrap;html=1;fontFamily=Helvetica;fontSize=11;labelBackgroundColor=default;fillColor=#f8cecc;strokeColor=#b85450;" vertex="1" parent="1">
          <mxGeometry x="620" y="430" width="125" height="80" as="geometry" />
        </mxCell>
        <mxCell id="8Gjf8t7oj8j_AWwgMj1q-42" style="edgeStyle=none;rounded=0;orthogonalLoop=1;jettySize=auto;html=1;entryX=0.75;entryY=0;entryDx=0;entryDy=0;strokeColor=default;align=center;verticalAlign=middle;fontFamily=Helvetica;fontSize=11;fontColor=default;labelBackgroundColor=default;endArrow=none;endFill=0;" edge="1" parent="1" source="8Gjf8t7oj8j_AWwgMj1q-40" target="8Gjf8t7oj8j_AWwgMj1q-1">
          <mxGeometry relative="1" as="geometry" />
        </mxCell>
        <mxCell id="8Gjf8t7oj8j_AWwgMj1q-40" value="View" style="rhombus;whiteSpace=wrap;html=1;fontFamily=Helvetica;fontSize=11;labelBackgroundColor=default;fillColor=#f8cecc;strokeColor=#b85450;" vertex="1" parent="1">
          <mxGeometry x="445" y="-10" width="80" height="80" as="geometry" />
        </mxCell>
        <mxCell id="8Gjf8t7oj8j_AWwgMj1q-53" style="edgeStyle=none;rounded=0;orthogonalLoop=1;jettySize=auto;html=1;exitX=0.5;exitY=1;exitDx=0;exitDy=0;entryX=0.5;entryY=0;entryDx=0;entryDy=0;strokeColor=default;align=center;verticalAlign=middle;fontFamily=Helvetica;fontSize=11;fontColor=default;labelBackgroundColor=default;endArrow=none;endFill=0;" edge="1" parent="1" source="8Gjf8t7oj8j_AWwgMj1q-45" target="8Gjf8t7oj8j_AWwgMj1q-1">
          <mxGeometry relative="1" as="geometry" />
        </mxCell>
        <mxCell id="8Gjf8t7oj8j_AWwgMj1q-45" value="Roll Number" style="ellipse;whiteSpace=wrap;html=1;align=center;fontStyle=4;fontFamily=Helvetica;fontSize=11;fontColor=default;labelBackgroundColor=default;" vertex="1" parent="1">
          <mxGeometry x="20" y="-60" width="80" height="40" as="geometry" />
        </mxCell>
        <mxCell id="8Gjf8t7oj8j_AWwgMj1q-54" style="edgeStyle=none;rounded=0;orthogonalLoop=1;jettySize=auto;html=1;exitX=0;exitY=1;exitDx=0;exitDy=0;strokeColor=default;align=center;verticalAlign=middle;fontFamily=Helvetica;fontSize=11;fontColor=default;labelBackgroundColor=default;endArrow=none;endFill=0;entryX=0.5;entryY=0;entryDx=0;entryDy=0;" edge="1" parent="1" source="8Gjf8t7oj8j_AWwgMj1q-46" target="8Gjf8t7oj8j_AWwgMj1q-1">
          <mxGeometry relative="1" as="geometry">
            <mxPoint x="90" y="20" as="targetPoint" />
          </mxGeometry>
        </mxCell>
        <mxCell id="8Gjf8t7oj8j_AWwgMj1q-46" value="Name&lt;span style=&quot;color: rgba(0, 0, 0, 0); font-family: monospace; font-size: 0px; text-align: start; text-wrap: nowrap; background-color: rgb(251, 251, 251);&quot;&gt;%3CmxGraphModel%3E%3Croot%3E%3CmxCell%20id%3D%220%22%2F%3E%3CmxCell%20id%3D%221%22%20parent%3D%220%22%2F%3E%3CmxCell%20id%3D%222%22%20value%3D%22Professor%26lt%3Bspan%20style%3D%26quot%3Bcolor%3A%20rgba(0%2C%200%2C%200%2C%200)%3B%20font-family%3A%20monospace%3B%20font-size%3A%200px%3B%20text-align%3A%20start%3B%20text-wrap%3A%20nowrap%3B%26quot%3B%26gt%3B%253CmxGraphModel%253E%253Croot%253E%253CmxCell%2520id%253D%25220%2522%252F%253E%253CmxCell%2520id%253D%25221%2522%2520parent%253D%25220%2522%252F%253E%253CmxCell%2520id%253D%25222%2522%2520value%253D%2522Student%2522%2520style%253D%2522rounded%253D0%253BwhiteSpace%253Dwrap%253Bhtml%253D1%253B%2522%2520vertex%253D%25221%2522%2520parent%253D%25221%2522%253E%253CmxGeometry%2520x%253D%2522150%2522%2520y%253D%252290%2522%2520width%253D%2522100%2522%2520height%253D%252250%2522%2520as%253D%2522geometry%2522%252F%253E%253C%252FmxCell%253E%253C%252Froot%253E%253C%252FmxGraphModel%253E%26lt%3B%2Fspan%26gt%3B%22%20style%3D%22rounded%3D0%3BwhiteSpace%3Dwrap%3Bhtml%3D1%3B%22%20vertex%3D%221%22%20parent%3D%221%22%3E%3CmxGeometry%20x%3D%22130%22%20y%3D%22430%22%20width%3D%22100%22%20height%3D%2250%22%20as%3D%22geometry%22%2F%3E%3C%2FmxCell%3E%3C%2Froot%3E%3C%2FmxGraphModel%3E&lt;/span&gt;" style="ellipse;whiteSpace=wrap;html=1;align=center;fontFamily=Helvetica;fontSize=11;fontColor=default;labelBackgroundColor=default;" vertex="1" parent="1">
          <mxGeometry x="130" y="-50" width="60" height="30" as="geometry" />
        </mxCell>
        <mxCell id="8Gjf8t7oj8j_AWwgMj1q-47" value="Password" style="ellipse;whiteSpace=wrap;html=1;align=center;fontFamily=Helvetica;fontSize=11;fontColor=default;labelBackgroundColor=default;" vertex="1" parent="1">
          <mxGeometry x="90" y="-100" width="60" height="30" as="geometry" />
        </mxCell>
        <mxCell id="8Gjf8t7oj8j_AWwgMj1q-55" style="edgeStyle=none;rounded=0;orthogonalLoop=1;jettySize=auto;html=1;exitX=0;exitY=1;exitDx=0;exitDy=0;strokeColor=default;align=center;verticalAlign=middle;fontFamily=Helvetica;fontSize=11;fontColor=default;labelBackgroundColor=default;endArrow=none;endFill=0;" edge="1" parent="1" source="8Gjf8t7oj8j_AWwgMj1q-48">
          <mxGeometry relative="1" as="geometry">
            <mxPoint x="80" y="30" as="targetPoint" />
          </mxGeometry>
        </mxCell>
        <mxCell id="8Gjf8t7oj8j_AWwgMj1q-48" value="Phn no" style="ellipse;shape=doubleEllipse;margin=3;whiteSpace=wrap;html=1;align=center;fontFamily=Helvetica;fontSize=11;fontColor=default;labelBackgroundColor=default;" vertex="1" parent="1">
          <mxGeometry x="140" y="-10" width="60" height="30" as="geometry" />
        </mxCell>
        <mxCell id="8Gjf8t7oj8j_AWwgMj1q-56" value="Notice ID" style="ellipse;whiteSpace=wrap;html=1;align=center;fontStyle=4;fontFamily=Helvetica;fontSize=11;fontColor=default;labelBackgroundColor=default;" vertex="1" parent="1">
          <mxGeometry x="580" y="-90" width="80" height="40" as="geometry" />
        </mxCell>
        <mxCell id="8Gjf8t7oj8j_AWwgMj1q-78" value="" style="edgeStyle=none;rounded=0;orthogonalLoop=1;jettySize=auto;html=1;strokeColor=default;align=center;verticalAlign=middle;fontFamily=Helvetica;fontSize=11;fontColor=default;labelBackgroundColor=default;endArrow=none;endFill=0;" edge="1" parent="1" source="8Gjf8t7oj8j_AWwgMj1q-57" target="8Gjf8t7oj8j_AWwgMj1q-31">
          <mxGeometry relative="1" as="geometry" />
        </mxCell>
        <mxCell id="8Gjf8t7oj8j_AWwgMj1q-57" value="Date of Publish" style="ellipse;whiteSpace=wrap;html=1;align=center;fontFamily=Helvetica;fontSize=11;fontColor=default;labelBackgroundColor=default;" vertex="1" parent="1">
          <mxGeometry x="680" y="-60" width="80" height="40" as="geometry" />
        </mxCell>
        <mxCell id="8Gjf8t7oj8j_AWwgMj1q-79" style="edgeStyle=none;rounded=0;orthogonalLoop=1;jettySize=auto;html=1;exitX=0;exitY=1;exitDx=0;exitDy=0;entryX=1;entryY=0;entryDx=0;entryDy=0;strokeColor=default;align=center;verticalAlign=middle;fontFamily=Helvetica;fontSize=11;fontColor=default;labelBackgroundColor=default;endArrow=none;endFill=0;" edge="1" parent="1" source="8Gjf8t7oj8j_AWwgMj1q-59" target="8Gjf8t7oj8j_AWwgMj1q-31">
          <mxGeometry relative="1" as="geometry" />
        </mxCell>
        <mxCell id="8Gjf8t7oj8j_AWwgMj1q-59" value="Subject" style="ellipse;whiteSpace=wrap;html=1;align=center;fontFamily=Helvetica;fontSize=11;fontColor=default;labelBackgroundColor=default;" vertex="1" parent="1">
          <mxGeometry x="760" y="-10" width="80" height="30" as="geometry" />
        </mxCell>
        <mxCell id="8Gjf8t7oj8j_AWwgMj1q-77" style="edgeStyle=none;rounded=0;orthogonalLoop=1;jettySize=auto;html=1;exitX=1;exitY=1;exitDx=0;exitDy=0;entryX=0.25;entryY=0;entryDx=0;entryDy=0;strokeColor=default;align=center;verticalAlign=middle;fontFamily=Helvetica;fontSize=11;fontColor=default;labelBackgroundColor=default;endArrow=none;endFill=0;" edge="1" parent="1" source="8Gjf8t7oj8j_AWwgMj1q-60" target="8Gjf8t7oj8j_AWwgMj1q-31">
          <mxGeometry relative="1" as="geometry" />
        </mxCell>
        <mxCell id="8Gjf8t7oj8j_AWwgMj1q-60" value="Description" style="ellipse;whiteSpace=wrap;html=1;align=center;fontFamily=Helvetica;fontSize=11;fontColor=default;labelBackgroundColor=default;" vertex="1" parent="1">
          <mxGeometry x="545" y="-30" width="80" height="40" as="geometry" />
        </mxCell>
        <mxCell id="8Gjf8t7oj8j_AWwgMj1q-61" value="Prof ID" style="ellipse;whiteSpace=wrap;html=1;align=center;fontStyle=4;fontFamily=Helvetica;fontSize=11;fontColor=default;labelBackgroundColor=default;" vertex="1" parent="1">
          <mxGeometry x="190" y="560" width="70" height="30" as="geometry" />
        </mxCell>
        <mxCell id="8Gjf8t7oj8j_AWwgMj1q-62" value="Name" style="ellipse;whiteSpace=wrap;html=1;align=center;fontFamily=Helvetica;fontSize=11;fontColor=default;labelBackgroundColor=default;" vertex="1" parent="1">
          <mxGeometry x="-50" y="570" width="60" height="20" as="geometry" />
        </mxCell>
        <mxCell id="8Gjf8t7oj8j_AWwgMj1q-63" value="Salary" style="ellipse;whiteSpace=wrap;html=1;align=center;fontFamily=Helvetica;fontSize=11;fontColor=default;labelBackgroundColor=default;" vertex="1" parent="1">
          <mxGeometry x="150" y="635" width="60" height="30" as="geometry" />
        </mxCell>
        <mxCell id="8Gjf8t7oj8j_AWwgMj1q-64" value="Designation" style="ellipse;whiteSpace=wrap;html=1;align=center;fontFamily=Helvetica;fontSize=11;fontColor=default;labelBackgroundColor=default;" vertex="1" parent="1">
          <mxGeometry x="-30" y="630" width="70" height="30" as="geometry" />
        </mxCell>
        <mxCell id="8Gjf8t7oj8j_AWwgMj1q-70" style="edgeStyle=none;rounded=0;orthogonalLoop=1;jettySize=auto;html=1;exitX=1;exitY=1;exitDx=0;exitDy=0;entryX=0.25;entryY=0;entryDx=0;entryDy=0;strokeColor=default;align=center;verticalAlign=middle;fontFamily=Helvetica;fontSize=11;fontColor=default;labelBackgroundColor=default;endArrow=none;endFill=0;" edge="1" parent="1" source="8Gjf8t7oj8j_AWwgMj1q-65" target="8Gjf8t7oj8j_AWwgMj1q-2">
          <mxGeometry relative="1" as="geometry" />
        </mxCell>
        <mxCell id="8Gjf8t7oj8j_AWwgMj1q-65" value="Joining Date" style="ellipse;whiteSpace=wrap;html=1;align=center;fontFamily=Helvetica;fontSize=11;fontColor=default;labelBackgroundColor=default;" vertex="1" parent="1">
          <mxGeometry x="-20" y="490" width="70" height="40" as="geometry" />
        </mxCell>
        <mxCell id="8Gjf8t7oj8j_AWwgMj1q-66" style="edgeStyle=none;rounded=0;orthogonalLoop=1;jettySize=auto;html=1;exitX=0;exitY=0.5;exitDx=0;exitDy=0;strokeColor=default;align=center;verticalAlign=middle;fontFamily=Helvetica;fontSize=11;fontColor=default;labelBackgroundColor=default;endArrow=none;endFill=0;" edge="1" parent="1" source="8Gjf8t7oj8j_AWwgMj1q-61" target="8Gjf8t7oj8j_AWwgMj1q-2">
          <mxGeometry relative="1" as="geometry" />
        </mxCell>
        <mxCell id="8Gjf8t7oj8j_AWwgMj1q-71" value="Course ID" style="ellipse;whiteSpace=wrap;html=1;align=center;fontStyle=4;fontFamily=Helvetica;fontSize=11;fontColor=default;labelBackgroundColor=default;" vertex="1" parent="1">
          <mxGeometry x="490" y="295" width="60" height="35" as="geometry" />
        </mxCell>
        <mxCell id="8Gjf8t7oj8j_AWwgMj1q-75" value="Address" style="ellipse;whiteSpace=wrap;html=1;align=center;fontFamily=Helvetica;fontSize=11;fontColor=default;labelBackgroundColor=default;" vertex="1" parent="1">
          <mxGeometry x="-80" y="-40" width="80" height="40" as="geometry" />
        </mxCell>
        <mxCell id="8Gjf8t7oj8j_AWwgMj1q-76" style="edgeStyle=none;rounded=0;orthogonalLoop=1;jettySize=auto;html=1;exitX=1;exitY=1;exitDx=0;exitDy=0;entryX=0.12;entryY=0;entryDx=0;entryDy=0;entryPerimeter=0;strokeColor=default;align=center;verticalAlign=middle;fontFamily=Helvetica;fontSize=11;fontColor=default;labelBackgroundColor=default;endArrow=none;endFill=0;" edge="1" parent="1" source="8Gjf8t7oj8j_AWwgMj1q-75" target="8Gjf8t7oj8j_AWwgMj1q-1">
          <mxGeometry relative="1" as="geometry" />
        </mxCell>
        <mxCell id="8Gjf8t7oj8j_AWwgMj1q-80" style="edgeStyle=none;rounded=0;orthogonalLoop=1;jettySize=auto;html=1;exitX=0.5;exitY=1;exitDx=0;exitDy=0;entryX=0.383;entryY=0.043;entryDx=0;entryDy=0;entryPerimeter=0;strokeColor=default;align=center;verticalAlign=middle;fontFamily=Helvetica;fontSize=11;fontColor=default;labelBackgroundColor=default;endArrow=none;endFill=0;" edge="1" parent="1" source="8Gjf8t7oj8j_AWwgMj1q-56" target="8Gjf8t7oj8j_AWwgMj1q-31">
          <mxGeometry relative="1" as="geometry" />
        </mxCell>
        <mxCell id="8Gjf8t7oj8j_AWwgMj1q-82" style="edgeStyle=none;rounded=0;orthogonalLoop=1;jettySize=auto;html=1;exitX=0.5;exitY=1;exitDx=0;exitDy=0;entryX=0;entryY=0;entryDx=0;entryDy=0;strokeColor=default;align=center;verticalAlign=middle;fontFamily=Helvetica;fontSize=11;fontColor=default;labelBackgroundColor=default;endArrow=none;endFill=0;" edge="1" parent="1" source="8Gjf8t7oj8j_AWwgMj1q-81" target="8Gjf8t7oj8j_AWwgMj1q-5">
          <mxGeometry relative="1" as="geometry" />
        </mxCell>
        <mxCell id="8Gjf8t7oj8j_AWwgMj1q-81" value="STaff ID" style="ellipse;whiteSpace=wrap;html=1;align=center;fontStyle=4;fontFamily=Helvetica;fontSize=11;fontColor=default;labelBackgroundColor=default;" vertex="1" parent="1">
          <mxGeometry x="545" y="230" width="100" height="40" as="geometry" />
        </mxCell>
        <mxCell id="8Gjf8t7oj8j_AWwgMj1q-83" value="Name" style="ellipse;whiteSpace=wrap;html=1;align=center;fontFamily=Helvetica;fontSize=11;fontColor=default;labelBackgroundColor=default;" vertex="1" parent="1">
          <mxGeometry x="545" y="360" width="100" height="40" as="geometry" />
        </mxCell>
        <mxCell id="8Gjf8t7oj8j_AWwgMj1q-84" value="&lt;span style=&quot;border-bottom: 1px dotted&quot;&gt;Age&lt;/span&gt;" style="ellipse;whiteSpace=wrap;html=1;align=center;fontFamily=Helvetica;fontSize=11;fontColor=default;labelBackgroundColor=default;" vertex="1" parent="1">
          <mxGeometry x="745" y="365" width="80" height="30" as="geometry" />
        </mxCell>
        <mxCell id="8Gjf8t7oj8j_AWwgMj1q-85" value="Role" style="ellipse;whiteSpace=wrap;html=1;align=center;fontFamily=Helvetica;fontSize=11;fontColor=default;labelBackgroundColor=default;" vertex="1" parent="1">
          <mxGeometry x="730" y="230" width="100" height="40" as="geometry" />
        </mxCell>
        <mxCell id="8Gjf8t7oj8j_AWwgMj1q-89" value="Course NAme" style="ellipse;whiteSpace=wrap;html=1;align=center;fontFamily=Helvetica;fontSize=11;fontColor=default;labelBackgroundColor=default;" vertex="1" parent="1">
          <mxGeometry x="440" y="430" width="80" height="40" as="geometry" />
        </mxCell>
        <mxCell id="8Gjf8t7oj8j_AWwgMj1q-95" value="1" style="whiteSpace=wrap;html=1;align=center;fontFamily=Helvetica;fontSize=11;labelBackgroundColor=default;fillColor=#fff2cc;strokeColor=#d6b656;" vertex="1" parent="1">
          <mxGeometry x="140" y="230" width="60" height="20" as="geometry" />
        </mxCell>
        <mxCell id="8Gjf8t7oj8j_AWwgMj1q-97" value="" style="edgeStyle=none;rounded=0;orthogonalLoop=1;jettySize=auto;html=1;strokeColor=default;align=center;verticalAlign=middle;fontFamily=Helvetica;fontSize=11;fontColor=default;labelBackgroundColor=default;endArrow=none;endFill=0;" edge="1" parent="1" source="8Gjf8t7oj8j_AWwgMj1q-13" target="8Gjf8t7oj8j_AWwgMj1q-96">
          <mxGeometry relative="1" as="geometry">
            <mxPoint x="269" y="359" as="sourcePoint" />
            <mxPoint x="360" y="356" as="targetPoint" />
          </mxGeometry>
        </mxCell>
        <mxCell id="8Gjf8t7oj8j_AWwgMj1q-96" value="M" style="whiteSpace=wrap;html=1;align=center;fontFamily=Helvetica;fontSize=11;labelBackgroundColor=default;fillColor=#fff2cc;strokeColor=#d6b656;" vertex="1" parent="1">
          <mxGeometry x="290" y="345" width="60" height="20" as="geometry" />
        </mxCell>
        <mxCell id="8Gjf8t7oj8j_AWwgMj1q-98" value="1" style="whiteSpace=wrap;html=1;align=center;fontFamily=Helvetica;fontSize=11;labelBackgroundColor=default;fillColor=#fff2cc;strokeColor=#d6b656;" vertex="1" parent="1">
          <mxGeometry x="60" y="450" width="60" height="20" as="geometry" />
        </mxCell>
        <mxCell id="8Gjf8t7oj8j_AWwgMj1q-99" value="M" style="whiteSpace=wrap;html=1;align=center;fontFamily=Helvetica;fontSize=11;labelBackgroundColor=default;fillColor=#fff2cc;strokeColor=#d6b656;" vertex="1" parent="1">
          <mxGeometry x="50" y="210" width="60" height="20" as="geometry" />
        </mxCell>
        <mxCell id="8Gjf8t7oj8j_AWwgMj1q-100" value="1" style="whiteSpace=wrap;html=1;align=center;fontFamily=Helvetica;fontSize=11;labelBackgroundColor=default;fillColor=#fff2cc;strokeColor=#d6b656;" vertex="1" parent="1">
          <mxGeometry x="270" y="10" width="60" height="20" as="geometry" />
        </mxCell>
        <mxCell id="8Gjf8t7oj8j_AWwgMj1q-103" value="" style="edgeStyle=none;rounded=0;orthogonalLoop=1;jettySize=auto;html=1;strokeColor=default;align=center;verticalAlign=middle;fontFamily=Helvetica;fontSize=11;fontColor=default;labelBackgroundColor=default;endArrow=none;endFill=0;" edge="1" parent="1" source="8Gjf8t7oj8j_AWwgMj1q-31" target="8Gjf8t7oj8j_AWwgMj1q-102">
          <mxGeometry relative="1" as="geometry">
            <mxPoint x="635" y="30" as="sourcePoint" />
            <mxPoint x="525" y="30" as="targetPoint" />
          </mxGeometry>
        </mxCell>
        <mxCell id="8Gjf8t7oj8j_AWwgMj1q-102" value="1" style="whiteSpace=wrap;html=1;align=center;fontFamily=Helvetica;fontSize=11;labelBackgroundColor=default;fillColor=#fff2cc;strokeColor=#d6b656;" vertex="1" parent="1">
          <mxGeometry x="560" y="30" width="60" height="20" as="geometry" />
        </mxCell>
        <mxCell id="8Gjf8t7oj8j_AWwgMj1q-105" value="1" style="whiteSpace=wrap;html=1;align=center;fontFamily=Helvetica;fontSize=11;labelBackgroundColor=default;fillColor=#fff2cc;strokeColor=#d6b656;" vertex="1" parent="1">
          <mxGeometry x="80" y="630" width="60" height="20" as="geometry" />
        </mxCell>
        <mxCell id="8Gjf8t7oj8j_AWwgMj1q-107" value="M" style="whiteSpace=wrap;html=1;align=center;fontFamily=Helvetica;fontSize=11;labelBackgroundColor=default;fillColor=#fff2cc;strokeColor=#d6b656;" vertex="1" parent="1">
          <mxGeometry x="90" y="800" width="60" height="20" as="geometry" />
        </mxCell>
        <mxCell id="8Gjf8t7oj8j_AWwgMj1q-108" value="1" style="whiteSpace=wrap;html=1;align=center;fontFamily=Helvetica;fontSize=11;labelBackgroundColor=default;fillColor=#fff2cc;strokeColor=#d6b656;" vertex="1" parent="1">
          <mxGeometry x="660" y="240" width="60" height="20" as="geometry" />
        </mxCell>
        <mxCell id="8Gjf8t7oj8j_AWwgMj1q-109" value="1" style="whiteSpace=wrap;html=1;align=center;fontFamily=Helvetica;fontSize=11;labelBackgroundColor=default;fillColor=#fff2cc;strokeColor=#d6b656;" vertex="1" parent="1">
          <mxGeometry x="685" y="95" width="60" height="20" as="geometry" />
        </mxCell>
        <mxCell id="8Gjf8t7oj8j_AWwgMj1q-110" value="1" style="whiteSpace=wrap;html=1;align=center;fontFamily=Helvetica;fontSize=11;labelBackgroundColor=default;fillColor=#fff2cc;strokeColor=#d6b656;" vertex="1" parent="1">
          <mxGeometry x="660" y="370" width="60" height="20" as="geometry" />
        </mxCell>
        <mxCell id="8Gjf8t7oj8j_AWwgMj1q-112" value="" style="edgeStyle=none;rounded=0;orthogonalLoop=1;jettySize=auto;html=1;entryX=0.5;entryY=1;entryDx=0;entryDy=0;strokeColor=default;align=center;verticalAlign=middle;fontFamily=Helvetica;fontSize=11;fontColor=default;labelBackgroundColor=default;endArrow=none;endFill=0;" edge="1" parent="1" source="8Gjf8t7oj8j_AWwgMj1q-10" target="8Gjf8t7oj8j_AWwgMj1q-111">
          <mxGeometry relative="1" as="geometry">
            <mxPoint x="681" y="630" as="sourcePoint" />
            <mxPoint x="683" y="510" as="targetPoint" />
          </mxGeometry>
        </mxCell>
        <mxCell id="8Gjf8t7oj8j_AWwgMj1q-111" value="1" style="whiteSpace=wrap;html=1;align=center;fontFamily=Helvetica;fontSize=11;labelBackgroundColor=default;fillColor=#fff2cc;strokeColor=#d6b656;" vertex="1" parent="1">
          <mxGeometry x="660" y="540" width="60" height="20" as="geometry" />
        </mxCell>
        <mxCell id="8Gjf8t7oj8j_AWwgMj1q-113" value="M" style="whiteSpace=wrap;html=1;align=center;fontFamily=Helvetica;fontSize=11;labelBackgroundColor=default;fillColor=#fff2cc;strokeColor=#d6b656;" vertex="1" parent="1">
          <mxGeometry x="380" y="640" width="60" height="20" as="geometry" />
        </mxCell>
        <mxCell id="8Gjf8t7oj8j_AWwgMj1q-116" value="1" style="whiteSpace=wrap;html=1;align=center;fontFamily=Helvetica;fontSize=11;labelBackgroundColor=default;fillColor=#fff2cc;strokeColor=#d6b656;" vertex="1" parent="1">
          <mxGeometry x="555" y="640" width="60" height="20" as="geometry" />
        </mxCell>
        <mxCell id="8Gjf8t7oj8j_AWwgMj1q-117" value="1" style="whiteSpace=wrap;html=1;align=center;fontFamily=Helvetica;fontSize=11;labelBackgroundColor=default;fillColor=#fff2cc;strokeColor=#d6b656;" vertex="1" parent="1">
          <mxGeometry x="130" y="490" width="60" height="20" as="geometry" />
        </mxCell>
        <mxCell id="8Gjf8t7oj8j_AWwgMj1q-118" value="M" style="whiteSpace=wrap;html=1;align=center;fontFamily=Helvetica;fontSize=11;labelBackgroundColor=default;fillColor=#fff2cc;strokeColor=#d6b656;" vertex="1" parent="1">
          <mxGeometry x="320" y="410" width="60" height="20" as="geometry" />
        </mxCell>
        <mxCell id="8Gjf8t7oj8j_AWwgMj1q-119" value="Company ID" style="ellipse;whiteSpace=wrap;html=1;align=center;fontStyle=4;fontFamily=Helvetica;fontSize=11;fontColor=default;labelBackgroundColor=default;" vertex="1" parent="1">
          <mxGeometry x="220" y="740" width="100" height="40" as="geometry" />
        </mxCell>
        <mxCell id="8Gjf8t7oj8j_AWwgMj1q-122" style="edgeStyle=none;rounded=0;orthogonalLoop=1;jettySize=auto;html=1;exitX=0.5;exitY=0;exitDx=0;exitDy=0;entryX=0.75;entryY=1;entryDx=0;entryDy=0;strokeColor=default;align=center;verticalAlign=middle;fontFamily=Helvetica;fontSize=11;fontColor=default;labelBackgroundColor=default;endArrow=none;endFill=0;" edge="1" parent="1" source="8Gjf8t7oj8j_AWwgMj1q-120" target="8Gjf8t7oj8j_AWwgMj1q-26">
          <mxGeometry relative="1" as="geometry" />
        </mxCell>
        <mxCell id="8Gjf8t7oj8j_AWwgMj1q-120" value="Company NAme" style="ellipse;whiteSpace=wrap;html=1;align=center;fontFamily=Helvetica;fontSize=11;fontColor=default;labelBackgroundColor=default;" vertex="1" parent="1">
          <mxGeometry x="345" y="720" width="100" height="40" as="geometry" />
        </mxCell>
        <mxCell id="8Gjf8t7oj8j_AWwgMj1q-123" value="1" style="whiteSpace=wrap;html=1;align=center;fontFamily=Helvetica;fontSize=11;labelBackgroundColor=default;fillColor=#fff2cc;strokeColor=#d6b656;" vertex="1" parent="1">
          <mxGeometry x="160" y="150" width="60" height="20" as="geometry" />
        </mxCell>
        <mxCell id="8Gjf8t7oj8j_AWwgMj1q-124" value="1" style="whiteSpace=wrap;html=1;align=center;fontFamily=Helvetica;fontSize=11;labelBackgroundColor=default;fillColor=#fff2cc;strokeColor=#d6b656;" vertex="1" parent="1">
          <mxGeometry x="300" y="210" width="60" height="20" as="geometry" />
        </mxCell>
        <mxCell id="8Gjf8t7oj8j_AWwgMj1q-125" value="M" style="whiteSpace=wrap;html=1;align=center;fontFamily=Helvetica;fontSize=11;labelBackgroundColor=default;fillColor=#fff2cc;strokeColor=#d6b656;" vertex="1" parent="1">
          <mxGeometry x="150" y="70" width="60" height="20" as="geometry" />
        </mxCell>
        <mxCell id="8Gjf8t7oj8j_AWwgMj1q-127" value="" style="edgeStyle=none;rounded=0;orthogonalLoop=1;jettySize=auto;html=1;exitX=1;exitY=0.5;exitDx=0;exitDy=0;entryX=0;entryY=0.5;entryDx=0;entryDy=0;strokeColor=default;align=center;verticalAlign=middle;fontFamily=Helvetica;fontSize=11;fontColor=default;labelBackgroundColor=default;endArrow=none;endFill=0;" edge="1" parent="1" source="8Gjf8t7oj8j_AWwgMj1q-9" target="8Gjf8t7oj8j_AWwgMj1q-126">
          <mxGeometry relative="1" as="geometry">
            <mxPoint x="280" y="105" as="sourcePoint" />
            <mxPoint x="355" y="105" as="targetPoint" />
          </mxGeometry>
        </mxCell>
        <mxCell id="8Gjf8t7oj8j_AWwgMj1q-126" value="1" style="whiteSpace=wrap;html=1;align=center;fontFamily=Helvetica;fontSize=11;labelBackgroundColor=default;fillColor=#fff2cc;strokeColor=#d6b656;" vertex="1" parent="1">
          <mxGeometry x="300" y="90" width="60" height="20" as="geometry" />
        </mxCell>
      </root>
    </mxGraphModel>
  </diagram>
</mxfile>
